# xmcd
#
# Track frame offsets:
#	187
#	11022
#	23617
#	35247
#	50722
#	61872
#	74507
#	86915
#	98605
#	112002
#	125350
#
# Disc length: 2039 seconds
#
# Revision: 2
# Processed by: cddbd v1.4PL0 Copyright (c) Steve Scherf et al.
# Submitted via: EZCDDA 4.3.2
#
DISCID=9607f50b
DTITLE=James Brown - Prisoner of love
DYEAR=1900
DGENRE=
TTITLE0=Prisoner of love
TTITLE1=Waiting in vain
TTITLE2=Again
TTITLE3=Lost someone
TTITLE4=Bewildered
TTITLE5=So long
TTITLE6=Signed, sealed an delivered
TTITLE7=Try me
TTITLE8=(can you) Feel it (Part1)
TTITLE9=How long darling
TTITLE10=The thing in "G"
EXTD=
EXTT0=
EXTT1=
EXTT2=
EXTT3=
EXTT4=
EXTT5=
EXTT6=
EXTT7=
EXTT8=
EXTT9=
EXTT10=
PLAYORDER=
